<svg width="124" height="35" viewBox="0 0 124 35" fill="none" xmlns="http://www.w3.org/2000/svg">
<path d="M12.5938 1.26562C14.1562 1.35938 15.4688 1.4375 16.5312 1.5C17.625 1.53125 18.5312 1.5625 19.25 1.59375C20.0625 1.625 20.75 1.625 21.3125 1.59375C21.875 1.5625 22.6406 1.48437 23.6094 1.35938C24.4219 1.26562 25.5 1.125 26.8438 0.9375C28.2188 0.71875 29.9219 0.4375 31.9531 0.09375C31.2344 0.8125 30.6719 1.46875 30.2656 2.0625C29.8906 2.625 29.5938 3.10938 29.375 3.51562C29.125 4.01562 28.9531 4.4375 28.8594 4.78125C28.7969 5.09375 28.8594 5.875 29.0469 7.125C29.2344 8.375 29.5 9.85938 29.8438 11.5781C30.1875 13.2656 30.5625 15.0781 30.9688 17.0156C31.375 18.9219 31.7812 20.7188 32.1875 22.4062C32.5938 24.0625 32.9531 25.4844 33.2656 26.6719C33.6094 27.8281 33.8594 28.5156 34.0156 28.7344C34.4844 29.3906 34.7812 29.8281 34.9062 30.0469C35.0312 30.2344 35.25 30.4062 35.5625 30.5625C35.6875 30.625 35.8906 30.7188 36.1719 30.8438C36.4219 30.9688 36.75 31.125 37.1562 31.3125C37.5938 31.5 38.1406 31.7188 38.7969 31.9688C37.5781 32.0312 36.5312 32.0781 35.6562 32.1094C34.7812 32.1094 34.0625 32.125 33.5 32.1562C32.8438 32.1875 32.2812 32.2188 31.8125 32.25C31.3438 32.25 30.7812 32.2812 30.125 32.3438C29.5625 32.4062 28.8281 32.4688 27.9219 32.5312C27.0469 32.5938 26.0156 32.6562 24.8281 32.7188C25.4531 32.2812 25.9531 31.8906 26.3281 31.5469C26.7344 31.1719 27.0469 30.8594 27.2656 30.6094C27.5156 30.2969 27.6875 30.0156 27.7812 29.7656C27.8438 29.4844 27.8906 29.0625 27.9219 28.5C27.9531 28 27.9531 27.3438 27.9219 26.5312C27.8906 25.6875 27.8125 24.5938 27.6875 23.25L15.3594 24.5156C15.0469 25.0469 14.8125 25.5156 14.6562 25.9219C14.5 26.2969 14.3906 26.625 14.3281 26.9062C14.2344 27.25 14.2031 27.5312 14.2344 27.75C14.2969 28 14.4062 28.2969 14.5625 28.6406C14.7188 28.9531 14.9375 29.3281 15.2188 29.7656C15.5312 30.1719 15.9844 30.6562 16.5781 31.2188C15.7969 31.1875 15 31.1719 14.1875 31.1719C13.375 31.1719 12.625 31.1875 11.9375 31.2188C11.125 31.25 10.3281 31.2812 9.54688 31.3125C8.76562 31.3438 7.875 31.3906 6.875 31.4531C6.03125 31.5156 5.04688 31.5938 3.92188 31.6875C2.76562 31.75 1.53125 31.8438 0.21875 31.9688C1.03125 31.5938 1.71875 31.2188 2.28125 30.8438C2.84375 30.4375 3.3125 30.0625 3.6875 29.7188C4.125 29.3438 4.5 28.9844 4.8125 28.6406C5.03125 28.3281 5.46875 27.6094 6.125 26.4844C6.78125 25.3281 7.51562 23.9688 8.32812 22.4062C9.17188 20.8438 10.0469 19.1719 10.9531 17.3906C11.8906 15.6094 12.7344 13.9375 13.4844 12.375C14.2344 10.7812 14.8438 9.40625 15.3125 8.25C15.7812 7.09375 16.0156 6.34375 16.0156 6C15.9531 5.59375 15.7969 5.14062 15.5469 4.64062C15.3281 4.20312 14.9844 3.70312 14.5156 3.14062C14.0781 2.57812 13.4375 1.95312 12.5938 1.26562ZM27.125 19.7812C26.9375 18.6875 26.7656 17.75 26.6094 16.9688C26.4531 16.1562 26.3281 15.4844 26.2344 14.9531C26.1094 14.3281 26.0156 13.7812 25.9531 13.3125C25.8594 12.875 25.75 12.3125 25.625 11.625C25.5 11.0312 25.3438 10.2969 25.1562 9.42188C25 8.51562 24.7969 7.4375 24.5469 6.1875C22.7656 9.75 21.375 12.5156 20.375 14.4844C19.4062 16.4219 18.7031 17.8438 18.2656 18.75C17.7344 19.8125 17.4375 20.4375 17.375 20.625L27.125 19.7812Z" fill="#B84239"/>
<path d="M38.1562 28.7031C38.3385 27.8438 38.4688 27.0885 38.5469 26.4375C38.651 25.7604 38.7292 25.2005 38.7812 24.7578C38.8333 24.237 38.8594 23.7943 38.8594 23.4297C38.8333 22.987 38.8073 22.4661 38.7812 21.8672C38.7812 21.2422 38.7552 20.6302 38.7031 20.0312C38.6771 19.4062 38.638 18.8594 38.5859 18.3906C38.5339 17.8958 38.4688 17.5443 38.3906 17.3359C38.2865 17.1276 38.1432 16.9062 37.9609 16.6719C37.5964 16.2292 37.0625 15.7995 36.3594 15.3828C36.9583 15.2526 37.4661 15.1484 37.8828 15.0703C38.3255 14.9661 38.6901 14.875 38.9766 14.7969C39.2891 14.6927 39.5625 14.6016 39.7969 14.5234C40.0052 14.4453 40.2526 14.3672 40.5391 14.2891C40.7734 14.237 41.0599 14.1719 41.3984 14.0938C41.737 14.0156 42.1276 13.9245 42.5703 13.8203L42.4531 17.375C43.2865 16.3854 44.1328 15.6432 44.9922 15.1484C45.8516 14.6536 46.6589 14.3021 47.4141 14.0938C48.2734 13.8333 49.1198 13.7031 49.9531 13.7031C50.9948 13.7552 51.9583 13.9245 52.8438 14.2109C53.7552 14.4974 54.5365 14.8359 55.1875 15.2266C55.8646 15.5911 56.4115 15.9818 56.8281 16.3984C57.2448 16.8151 57.4922 17.1797 57.5703 17.4922C57.8828 18.5078 57.9609 19.4453 57.8047 20.3047C57.6484 21.138 57.4401 21.9583 57.1797 22.7656C56.9453 23.5469 56.737 24.3281 56.5547 25.1094C56.3984 25.8906 56.4635 26.737 56.75 27.6484C56.8542 27.8828 56.9583 28.1172 57.0625 28.3516C57.1667 28.5599 57.2969 28.7682 57.4531 28.9766C57.6094 29.1849 57.7917 29.3542 58 29.4844C57.7135 29.4583 57.4271 29.4453 57.1406 29.4453C56.8542 29.4193 56.5938 29.3932 56.3594 29.3672C56.0729 29.3411 55.8125 29.3151 55.5781 29.2891C55.3177 29.263 54.9661 29.25 54.5234 29.25C53.7682 29.25 52.5964 29.2891 51.0078 29.3672C51.2422 28.8203 51.4245 28.3646 51.5547 28C51.7109 27.6094 51.8411 27.2969 51.9453 27.0625C52.0495 26.776 52.1276 26.5547 52.1797 26.3984C52.4922 25.6432 52.6745 24.7839 52.7266 23.8203C52.8047 22.8568 52.7396 21.8802 52.5312 20.8906C52.4531 20.5521 52.3229 20.1484 52.1406 19.6797C51.9583 19.2109 51.7109 18.7552 51.3984 18.3125C51.112 17.8698 50.7604 17.4922 50.3438 17.1797C49.9531 16.8672 49.4974 16.6849 48.9766 16.6328C48.4557 16.5807 47.8698 16.7109 47.2188 17.0234C46.5938 17.3359 45.9167 17.9089 45.1875 18.7422C44.6406 19.4453 44.2109 20.3047 43.8984 21.3203C43.612 22.1797 43.4167 23.2604 43.3125 24.5625C43.2083 25.8385 43.3646 27.3359 43.7812 29.0547C43.4167 29.0026 43.0781 28.9766 42.7656 28.9766C42.4531 28.9505 42.1927 28.9245 41.9844 28.8984C41.724 28.8724 41.4896 28.8464 41.2812 28.8203C41.0469 28.8203 40.7865 28.8073 40.5 28.7812C40.2396 28.7812 39.9141 28.7812 39.5234 28.7812C39.1328 28.7552 38.6771 28.7292 38.1562 28.7031ZM60.3828 15.5391L67.5703 15.6172C67.1536 17.2057 66.8411 18.5599 66.6328 19.6797C66.4505 20.7995 66.3333 21.737 66.2812 22.4922C66.1771 23.3516 66.151 24.0807 66.2031 24.6797C66.2812 25.2266 66.4115 25.8125 66.5938 26.4375C66.75 26.9583 66.9844 27.5573 67.2969 28.2344C67.6094 28.9115 68.026 29.5885 68.5469 30.2656C68.2344 30.1615 67.8958 30.0833 67.5312 30.0312C67.1667 29.9792 66.8281 29.9401 66.5156 29.9141C66.151 29.888 65.7865 29.888 65.4219 29.9141C65.0573 29.9401 64.6536 29.9792 64.2109 30.0312C63.8464 30.0833 63.4036 30.1484 62.8828 30.2266C62.362 30.3047 61.8151 30.4089 61.2422 30.5391C61.6328 29.3672 61.9323 28.3516 62.1406 27.4922C62.375 26.6328 62.5443 25.9167 62.6484 25.3438C62.7526 24.6667 62.8177 24.1198 62.8438 23.7031C62.8438 23.1823 62.8438 22.5964 62.8438 21.9453C62.8438 21.2682 62.8438 20.6172 62.8438 19.9922C62.8438 19.3672 62.8307 18.8203 62.8047 18.3516C62.7786 17.8568 62.7266 17.5443 62.6484 17.4141L62.2578 17.0234C62.1016 16.8932 61.8672 16.7109 61.5547 16.4766C61.2682 16.2161 60.8776 15.9036 60.3828 15.5391ZM63.1562 9.52344C63.7031 9.23698 64.25 9.15885 64.7969 9.28906C65.3698 9.41927 65.8125 9.66667 66.125 10.0312C66.4375 10.3958 66.5417 10.8255 66.4375 11.3203C66.3594 11.8151 65.9427 12.2969 65.1875 12.7656C64.4323 13.2083 63.7682 13.3646 63.1953 13.2344C62.6224 13.1042 62.2188 12.8307 61.9844 12.4141C61.75 11.9974 61.7109 11.5156 61.8672 10.9688C62.0234 10.3958 62.4531 9.91406 63.1562 9.52344ZM71.6719 34.4062C72.1927 34.0417 72.6094 33.5599 72.9219 32.9609C73.2344 32.362 73.4688 31.776 73.625 31.2031C73.8073 30.526 73.9245 29.8229 73.9766 29.0938C73.9766 28.651 73.9505 27.9479 73.8984 26.9844C73.8464 26.1771 73.7682 25.0703 73.6641 23.6641C73.5599 22.2318 73.4036 20.3828 73.1953 18.1172C72.9089 18.1432 72.6615 18.1693 72.4531 18.1953C72.2448 18.1953 72.0755 18.1953 71.9453 18.1953H71.5156C71.3854 18.1953 71.2292 18.2083 71.0469 18.2344C70.8906 18.2604 70.6823 18.2995 70.4219 18.3516C70.1875 18.4036 69.901 18.4688 69.5625 18.5469C69.6146 18.3385 69.6406 18.1302 69.6406 17.9219C69.6667 17.6875 69.6927 17.4792 69.7188 17.2969C69.7448 17.0885 69.7578 16.8932 69.7578 16.7109V16.125C69.7578 15.9427 69.7578 15.7474 69.7578 15.5391C69.7839 15.3307 69.8099 15.1224 69.8359 14.9141L72.9219 14.9922C72.7917 13.8724 72.7396 12.8698 72.7656 11.9844C72.7917 11.0729 72.8307 10.2917 72.8828 9.64062C72.9609 8.88542 73.0651 8.22135 73.1953 7.64844C73.3776 6.94531 73.625 6.29427 73.9375 5.69531C74.25 5.09635 74.6797 4.58854 75.2266 4.17188C75.7734 3.75521 76.4505 3.44271 77.2578 3.23438C78.0651 3 79.0417 2.88281 80.1875 2.88281C81.4896 2.90885 82.5182 3.07812 83.2734 3.39062C84.0286 3.67708 84.5885 4.05469 84.9531 4.52344C85.3177 4.96615 85.526 5.47396 85.5781 6.04688C85.6302 6.61979 85.6172 7.17969 85.5391 7.72656C85.487 8.2474 85.3958 8.72917 85.2656 9.17188C85.1615 9.61458 85.1224 9.9401 85.1484 10.1484C85.1745 10.3047 85.2396 10.513 85.3438 10.7734C85.4219 10.9818 85.5391 11.2422 85.6953 11.5547C85.8776 11.8672 86.138 12.2188 86.4766 12.6094C86.0599 12.5573 85.6432 12.5182 85.2266 12.4922C84.8099 12.4401 84.4193 12.401 84.0547 12.375C83.638 12.349 83.2344 12.3359 82.8438 12.3359C82.4531 12.362 82.0495 12.388 81.6328 12.4141C81.2682 12.4661 80.8776 12.5182 80.4609 12.5703C80.0443 12.5964 79.6536 12.6745 79.2891 12.8047C79.8099 12.4401 80.2135 12.0625 80.5 11.6719C80.7865 11.2812 81.0078 10.9297 81.1641 10.6172C81.3464 10.2526 81.4635 9.88802 81.5156 9.52344C81.5417 9.08073 81.5156 8.58594 81.4375 8.03906C81.3854 7.46615 81.2682 6.94531 81.0859 6.47656C80.9036 6.00781 80.6823 5.63021 80.4219 5.34375C80.1615 5.03125 79.849 4.91406 79.4844 4.99219C78.9375 5.20052 78.4297 5.70833 77.9609 6.51562C77.5703 7.19271 77.1927 8.22135 76.8281 9.60156C76.4635 10.9557 76.2292 12.8438 76.125 15.2656C76.6198 15.3177 77.0755 15.3568 77.4922 15.3828C77.9349 15.3828 78.3255 15.3958 78.6641 15.4219C79.0547 15.4479 79.4193 15.4609 79.7578 15.4609C80.0964 15.4609 80.474 15.4479 80.8906 15.4219C81.2552 15.3958 81.6849 15.3828 82.1797 15.3828C82.6745 15.3568 83.2214 15.3177 83.8203 15.2656L83.7422 17.2969C83.2734 17.349 82.8177 17.388 82.375 17.4141C81.9323 17.4401 81.5417 17.4661 81.2031 17.4922C80.8125 17.5182 80.4479 17.5443 80.1094 17.5703C79.7448 17.5964 79.3672 17.6224 78.9766 17.6484C78.638 17.6745 78.2474 17.7135 77.8047 17.7656C77.388 17.8177 76.9453 17.8698 76.4766 17.9219C76.8411 20.8646 77.1536 23.2474 77.4141 25.0703C77.7005 26.8672 77.9479 28.2604 78.1562 29.25C78.3646 30.4219 78.5469 31.2552 78.7031 31.75C78.8594 32.1667 79.0417 32.5312 79.25 32.8438C79.4323 33.1302 79.6536 33.4036 79.9141 33.6641C80.1745 33.9245 80.474 34.0938 80.8125 34.1719C79.9792 34.0417 79.263 33.9375 78.6641 33.8594C78.0651 33.8073 77.5573 33.7682 77.1406 33.7422C76.6719 33.7161 76.2682 33.7031 75.9297 33.7031C75.6172 33.7292 75.2396 33.7682 74.7969 33.8203C74.0417 33.8984 73 34.0938 71.6719 34.4062ZM84.5625 34.0938C84.8229 33.7031 85.0312 33.3385 85.1875 33C85.3438 32.6615 85.474 32.375 85.5781 32.1406C85.6823 31.8542 85.7604 31.5938 85.8125 31.3594C85.8385 31.2031 85.8516 30.7474 85.8516 29.9922C85.8516 29.237 85.8255 28.2865 85.7734 27.1406C85.7474 25.9948 85.7083 24.7057 85.6562 23.2734C85.6302 21.8411 85.5781 20.3828 85.5 18.8984C85.4479 17.4141 85.3828 15.9688 85.3047 14.5625C85.2526 13.1562 85.2005 11.8932 85.1484 10.7734C85.0964 9.6276 85.0443 8.6901 84.9922 7.96094C84.9401 7.23177 84.901 6.8151 84.875 6.71094C84.8229 6.55469 84.7318 6.39844 84.6016 6.24219C84.3411 5.92969 83.8984 5.63021 83.2734 5.34375C84.6016 5.00521 85.6172 4.73177 86.3203 4.52344C86.737 4.41927 87.1016 4.3151 87.4141 4.21094C87.7005 4.10677 87.987 4.0026 88.2734 3.89844C88.5078 3.79427 88.7682 3.67708 89.0547 3.54688C89.3411 3.39062 89.6016 3.22135 89.8359 3.03906C89.7057 3.79427 89.6016 4.52344 89.5234 5.22656C89.4453 5.92969 89.3802 6.58073 89.3281 7.17969C89.276 7.85677 89.25 8.50781 89.25 9.13281C89.1198 10.4089 89.0417 11.8021 89.0156 13.3125C89.0156 14.7969 89.0286 16.3073 89.0547 17.8438C89.0807 19.3802 89.1328 20.8776 89.2109 22.3359C89.2891 23.7943 89.3672 25.1224 89.4453 26.3203C89.5495 27.4922 89.6406 28.4948 89.7188 29.3281C89.8229 30.1354 89.901 30.6562 89.9531 30.8906C90.0573 31.2812 90.1615 31.6589 90.2656 32.0234C90.3698 32.3359 90.487 32.6615 90.6172 33C90.7474 33.3646 90.9036 33.651 91.0859 33.8594H87.2969C86.9583 33.8594 86.6328 33.8724 86.3203 33.8984C86.0339 33.9245 85.7344 33.9505 85.4219 33.9766C85.1094 34.0026 84.8229 34.0417 84.5625 34.0938ZM92.4922 15.5391L99.6797 15.6172C99.263 17.2057 98.9505 18.5599 98.7422 19.6797C98.5599 20.7995 98.4427 21.737 98.3906 22.4922C98.2865 23.3516 98.2604 24.0807 98.3125 24.6797C98.3906 25.2266 98.5208 25.8125 98.7031 26.4375C98.8594 26.9583 99.0938 27.5573 99.4062 28.2344C99.7188 28.9115 100.135 29.5885 100.656 30.2656C100.344 30.1615 100.005 30.0833 99.6406 30.0312C99.276 29.9792 98.9375 29.9401 98.625 29.9141C98.2604 29.888 97.8958 29.888 97.5312 29.9141C97.1667 29.9401 96.763 29.9792 96.3203 30.0312C95.9557 30.0833 95.513 30.1484 94.9922 30.2266C94.4714 30.3047 93.9245 30.4089 93.3516 30.5391C93.7422 29.3672 94.0417 28.3516 94.25 27.4922C94.4844 26.6328 94.6536 25.9167 94.7578 25.3438C94.862 24.6667 94.9271 24.1198 94.9531 23.7031C94.9531 23.1823 94.9531 22.5964 94.9531 21.9453C94.9531 21.2682 94.9531 20.6172 94.9531 19.9922C94.9531 19.3672 94.9401 18.8203 94.9141 18.3516C94.888 17.8568 94.8359 17.5443 94.7578 17.4141L94.3672 17.0234C94.2109 16.8932 93.9766 16.7109 93.6641 16.4766C93.3776 16.2161 92.987 15.9036 92.4922 15.5391ZM95.2656 9.52344C95.8125 9.23698 96.3594 9.15885 96.9062 9.28906C97.4792 9.41927 97.9219 9.66667 98.2344 10.0312C98.5469 10.3958 98.651 10.8255 98.5469 11.3203C98.4688 11.8151 98.0521 12.2969 97.2969 12.7656C96.5417 13.2083 95.8776 13.3646 95.3047 13.2344C94.7318 13.1042 94.3281 12.8307 94.0938 12.4141C93.8594 11.9974 93.8203 11.5156 93.9766 10.9688C94.1328 10.3958 94.5625 9.91406 95.2656 9.52344ZM100.578 11.3203C101.333 11.3203 101.958 11.3333 102.453 11.3594C102.948 11.3594 103.339 11.3594 103.625 11.3594H104.406H105.305C105.669 11.3594 106.151 11.3594 106.75 11.3594C107.375 11.3333 108.182 11.2943 109.172 11.2422C108.703 11.3464 108.339 11.4635 108.078 11.5938C107.818 11.6979 107.622 11.8151 107.492 11.9453C107.336 12.0755 107.245 12.2188 107.219 12.375C107.245 12.5833 107.336 12.9089 107.492 13.3516C107.622 13.7422 107.844 14.276 108.156 14.9531C108.495 15.6302 108.99 16.5417 109.641 17.6875C110.734 16.4375 111.568 15.4479 112.141 14.7188C112.714 13.9896 113.143 13.4297 113.43 13.0391C113.716 12.5964 113.885 12.2969 113.938 12.1406C113.911 12.0104 113.872 11.8802 113.82 11.75C113.742 11.5417 113.547 11.2161 113.234 10.7734C113.938 10.8255 114.549 10.8646 115.07 10.8906C115.591 10.8906 116.034 10.9036 116.398 10.9297C116.815 10.9557 117.154 10.9688 117.414 10.9688C117.701 10.9688 118.117 10.9557 118.664 10.9297C119.107 10.9036 119.706 10.8776 120.461 10.8516C121.242 10.7995 122.219 10.7214 123.391 10.6172C122.427 11.0859 121.607 11.5417 120.93 11.9844C120.253 12.401 119.693 12.7786 119.25 13.1172C118.729 13.5078 118.299 13.8724 117.961 14.2109C117.622 14.6016 117.206 15.0833 116.711 15.6562C116.268 16.1771 115.721 16.8281 115.07 17.6094C114.445 18.3646 113.677 19.3151 112.766 20.4609C113.443 21.6328 114.081 22.6354 114.68 23.4688C115.305 24.3021 115.839 24.9922 116.281 25.5391C116.802 26.1901 117.284 26.7109 117.727 27.1016C118.169 27.4922 118.651 27.8828 119.172 28.2734C119.615 28.612 120.122 28.9766 120.695 29.3672C121.294 29.7318 121.932 30.0573 122.609 30.3438C121.932 30.3958 121.268 30.4349 120.617 30.4609C119.992 30.4609 119.432 30.487 118.938 30.5391C118.365 30.5911 117.818 30.6302 117.297 30.6562C116.776 30.7083 116.242 30.7474 115.695 30.7734C115.227 30.7995 114.706 30.8255 114.133 30.8516C113.56 30.8776 112.974 30.8906 112.375 30.8906C112.609 30.6562 112.792 30.4349 112.922 30.2266C113.052 30.0182 113.156 29.8359 113.234 29.6797C113.339 29.4974 113.404 29.3281 113.43 29.1719C113.404 28.9635 113.273 28.625 113.039 28.1562C112.831 27.7396 112.505 27.1667 112.062 26.4375C111.62 25.6823 110.969 24.6667 110.109 23.3906C109.51 24.0156 109.029 24.5625 108.664 25.0312C108.326 25.5 108.065 25.8906 107.883 26.2031C107.674 26.5677 107.531 26.8672 107.453 27.1016C107.401 27.3359 107.401 27.5964 107.453 27.8828C107.505 28.1172 107.583 28.4036 107.688 28.7422C107.792 29.0547 107.974 29.3802 108.234 29.7188C106.932 29.7969 105.839 29.8359 104.953 29.8359H103.625C103.208 29.8359 102.714 29.8229 102.141 29.7969C101.646 29.7708 101.034 29.7578 100.305 29.7578C99.5495 29.7318 98.6771 29.6927 97.6875 29.6406C97.974 29.5365 98.2734 29.4062 98.5859 29.25C98.8984 29.0938 99.1719 28.9505 99.4062 28.8203C99.6927 28.6641 99.9661 28.4948 100.227 28.3125C100.513 28.0781 100.969 27.6354 101.594 26.9844C102.115 26.4375 102.831 25.6693 103.742 24.6797C104.654 23.6641 105.839 22.3099 107.297 20.6172C106.438 19.0547 105.734 17.8177 105.188 16.9062C104.667 15.9688 104.263 15.2396 103.977 14.7188C103.638 14.1198 103.391 13.7161 103.234 13.5078C103.078 13.2995 102.87 13.0651 102.609 12.8047C102.193 12.388 101.516 11.8932 100.578 11.3203Z" fill="white"/>
</svg>
